<?xml version="1.0" encoding="UTF-8"?>
<svg width="12px" height="16px" viewBox="0 0 12 16" version="1.1" xmlns="http://www.w3.org/2000/svg" xmlns:xlink="http://www.w3.org/1999/xlink">
    <!-- Generator: Sketch 52.5 (67469) - http://www.bohemiancoding.com/sketch -->
    <title>bookmark</title>
    <desc>Created with Sketch.</desc>
    <g id="Page-1" stroke="none" stroke-width="1" fill="none" fill-rule="evenodd">
        <g id="icons" transform="translate(-66.000000, -14.000000)" fill="#000000" fill-rule="nonzero">
            <g id="bookmark" transform="translate(66.000000, 14.000000)">
                <path d="M12,1.86986522 C12,0.837167176 11.1734488,0 10.1538462,0 L1.84615385,0 C0.826551231,0 0,0.837167176 0,1.86986522 L0,15.5759773 L0.00923076923,15.5759773 C0.0184615385,15.6694706 0.0553846154,15.7629638 0.12,15.8377584 C0.291824994,16.0239452 0.579231279,16.0364208 0.766153846,15.8658064 L6,12.0138841 L11.2246154,15.8751557 C11.3149185,15.9600501 11.4349859,16.0048509 11.5580836,15.9995828 C11.6811812,15.9943147 11.7970893,15.939415 11.88,15.8471078 C11.9446968,15.7711146 11.9835338,15.676053 11.9907692,15.5759773 L12,15.5759773 L12,1.86986522 Z M5.68615385,11.1911434 L0.923076923,14.622346 L0.923076923,1.86986522 C0.923076923,1.3535162 1.33635254,0.934932611 1.84615385,0.934932611 L10.1538462,0.934932611 C10.6636475,0.934932611 11.0769231,1.3535162 11.0769231,1.86986522 L11.0769231,14.622346 L6.31384615,11.1911434 C6.13866305,11.0201698 5.86133695,11.0201698 5.68615385,11.1911434 Z" id="Shape"></path>
            </g>
        </g>
    </g>
</svg>