<?xml version="1.0" encoding="UTF-8"?>
<svg width="94px" height="94px" viewBox="0 0 94 94" version="1.1" xmlns="http://www.w3.org/2000/svg" xmlns:xlink="http://www.w3.org/1999/xlink">
    <!-- Generator: Sketch 52.5 (67469) - http://www.bohemiancoding.com/sketch -->
    <title>Mobile Logo</title>
    <desc>Created with Sketch.</desc>
    <g id="Mobile-Logo" stroke="none" stroke-width="1" fill="none" fill-rule="evenodd">
        <rect id="Rectangle" fill="#000000" x="-1" y="0" width="95" height="94"></rect>
        <path d="M67.4743265,54.8492017 L62.8268354,71 L54.8734177,71 L53.2025316,64.6962783 C50.3689414,55.1545203 48.069066,47.4371802 46.3029054,41.5442579 L37.8268354,71 L29.8734177,71 L28.2025316,64.6962783 C20.8316962,39.8759188 17.0722025,27.4003478 16.9240506,27.2695652 L16.5260525,26.8245384 L14,24 L33.2151899,24 L29.0379747,27.2695652 C28.9444051,27.361113 32.0594065,38.6683594 38.382979,61.1913043 L45.1244314,37.6197225 C43.0683844,30.788067 42.0015908,27.3380146 41.9240506,27.2695652 L39,24 L58.2151899,24 L54.0379747,27.2695652 C53.9444051,27.361113 57.0594065,38.6683594 63.382979,61.1913043 L70.0245032,37.969123 L72.0833333,30.5279474 L65,24 L80,24 L74.5833333,30.5279474 L67.5,55 L67.4743265,54.8492017 Z" id="Combined-Shape" fill="#FFFFFF"></path>
    </g>
</svg>