<?xml version="1.0" encoding="UTF-8"?>
<svg width="318px" height="78px" viewBox="0 0 318 78" version="1.1" xmlns="http://www.w3.org/2000/svg" xmlns:xlink="http://www.w3.org/1999/xlink">
    <!-- Generator: Sketch 51.2 (57519) - http://www.bohemiancoding.com/sketch -->
    <title>webium_logo</title>
    <desc>Created with Sketch.</desc>
    <defs></defs>
    <g id="webium_logo" stroke="none" stroke-width="1" fill="none" fill-rule="evenodd">
        <g id="SVG-Layer" transform="translate(89.000000, 12.000000)" fill="#000000" fill-rule="nonzero">
            <path d="M195.057971,53.3061607 L195.057971,33.2989143 C195.057971,26.8025375 194.751087,22.3945665 190.20163,22.3945665 C187.890036,22.3945665 185.941123,23.530436 184.496377,25.4076099 C184.928804,27.2130447 185.094203,29.3293491 185.094203,31.6389505 C185.094203,36.1166679 185.165942,41.8219215 185.094203,47.5271751 C185.094203,48.4677549 185.002536,48.6829722 185.580435,49.2608708 L189.07971,53.3061607 L173.137681,53.3061607 L173.137681,33.2989143 C173.137681,26.7288056 172.219022,22.3945665 167.741304,22.3945665 C165.42971,22.3945665 164.473188,23.6958346 163.173913,25.5730085 L163.173913,47.5271751 C163.173913,48.4677549 163.122101,48.6829722 163.771739,49.2608708 L167.15942,53.3061607 L151.217391,53.3061607 L151.217391,22.5380447 C151.217391,21.6014505 151.077899,21.3842404 150.5,20.7346027 L147.231884,17.4365954 L163.173913,17.4365954 L163.173913,24.6344215 C164.979348,19.5788056 168.030254,16.4402186 173.878986,16.4402186 C179.223551,16.4402186 182.83442,19.3615954 184.350906,24.9233708 C186.012862,20.1567041 190.345109,16.4402186 196.413043,16.4402186 C203.563043,16.4402186 207.014493,21.6731896 207.014493,31.6389505 C207.014493,36.4056172 207.086232,41.8219215 207.014493,47.5271751 C207.014493,48.4677549 207.022464,48.8264505 207.512681,49.2608708 L211,53.3061607 L195.057971,53.3061607 Z M141.253623,47.2382259 C141.253623,48.1788056 140.956703,48.4677549 141.608333,49.0436607 L145.23913,53.3061607 L129.297101,53.3061607 L129.297101,45.3351462 C127.491667,50.2472838 123.406522,53.3061607 118.063949,53.3061607 C110.913949,53.3061607 107.376812,48.1050737 107.376812,38.2827911 C107.376812,33.5181172 107.305072,28.319023 107.376812,22.4682983 C107.376812,21.5297114 107.157609,21.3125012 106.57971,20.7346027 L103.391304,17.4365954 L119.333333,17.4365954 L119.333333,36.6228273 C119.333333,43.0494578 119.869384,47.3836969 123.912681,47.3836969 C126.224275,47.3836969 128.069565,45.9389505 129.297101,44.1355085 L129.297101,22.5380447 C129.297101,21.5994578 129.040036,21.3822476 128.462138,20.7326099 L125.311594,17.4365954 L141.253623,17.4365954 L141.253623,47.2382259 Z M91.4387681,1.23505822e-06 C93.156063,9.0948935e-07 94.8029638,0.68246631 96.0169008,1.89715085 C97.2308379,3.1118354 97.9122893,4.75915596 97.9112319,6.47645051 C97.9112314,9.0962923 96.3328636,11.4580925 93.912291,12.4602898 C91.4917185,13.4624871 88.7057697,12.9076587 86.8538321,11.0545807 C85.0018945,9.20150276 84.4487812,6.41521301 85.4524683,3.99525783 C86.4561555,1.57530265 88.8189268,-0.00161097528 91.4387681,1.23505822e-06 Z M85.4565217,53.3061607 L85.4565217,22.5380447 C85.4565217,21.6014505 85.7913043,21.3842404 85.2134058,20.7346027 L81.4710145,17.4365954 L97.4130435,17.4365954 L97.4130435,47.5271751 C97.4130435,48.4677549 97.3931159,48.8782621 97.8913043,49.3206534 L101.398551,53.3061607 L85.4565217,53.3061607 Z M52.5362319,23.1590441 C53.510974,21.9055296 55.2624336,21 57.1427053,21 C60.9051712,21 64.5292123,24.4125585 64.5292123,34.5156544 C64.5292123,43.9939156 61.3935035,47.3372617 57.4926127,47.3372617 C55.7488433,47.3372617 53.9300938,46.4990219 52.5362319,44.6879627 L52.5362319,23.1590441 Z M40.8672246,47.3029809 C40.8672246,48.2409777 40.9179931,48.4605089 40.2814346,49.0392729 L36.9619578,53.3061607 L52.5830253,53.3061607 L52.5830253,45.9279175 C54.7055378,50.9192581 58.5366046,53.3061607 63.0647616,53.3061607 C71.1330429,53.3061607 76.9909433,46.7960635 76.9909433,34.9353928 C76.9909433,23.7951836 70.637074,16.3470896 61.7916446,16.3470896 C57.1912402,16.3470896 54.1392741,18.5883033 52.5830253,22.1327339 L52.5830253,7.16070777 C52.5830253,6.22071519 52.733378,5.92933745 53.3699365,5.35256918 L56.4882921,2.02567402 L40.8672246,2.84217094e-14 L40.8672246,47.3029809 Z M23.4818841,31.3858708 C23.5556159,30.4472838 23.5556159,30.0507259 23.5556159,29.7617766 C23.5556159,20.3021751 21.6884058,18.9311607 18.6992754,18.9311607 C15.7101449,18.9311607 13.0119565,20.9139505 12.8664855,31.3858708 L23.4838768,31.3858708 L23.4818841,31.3858708 Z M12.8664855,33.3786244 C12.8664855,42.7664867 17.6331522,46.5905809 23.1949275,46.5905809 C27.5271739,46.5905809 31.7896739,44.7114143 34.1730072,39.9447476 L34.3164855,39.9447476 C32.4393116,49.0436607 26.8038043,53.3061607 18.354529,53.3061607 C9.25561594,53.3061607 0.660869565,47.8161244 0.660869565,35.1063418 C0.660869565,21.7449288 9.18387681,16.4023563 18.7889493,16.4023563 C26.4451087,16.4023563 34.6054348,20.0112331 34.6054348,31.6389505 C34.6054348,31.8561607 34.6054348,32.5117766 34.5336957,33.3786244 L12.8664855,33.3786244 Z" id="Shape"></path>
        </g>
        <path d="M79.4020952,42.5091522 L72.8,66 L63.875,66 L62,58.7574261 C58.5374038,46.8193411 55.7850138,37.3669117 53.7428299,30.4001378 L43.7375,66 L34.8125,66 L32.9375,58.7574261 C24.66625,30.2404174 20.4475,15.9067826 20.28125,15.7565217 L19.8346328,15.2452143 L17,12 L38.5625,12 L33.875,15.7565217 C33.77,15.8617043 37.2655272,28.8530087 44.3615815,54.7304348 L52.4176914,25.8899799 C50.4486529,19.2068783 49.4240057,15.8290589 49.34375,15.7565217 L46.0625,12 L67.625,12 L62.9375,15.7565217 C62.8325,15.8617043 66.3280272,28.8530087 73.4240815,54.7304348 L78.041095,38.2017666 L83.09375,19.5149217 L75.125,12 L92,12 L85.90625,19.5149217 L79.4020952,42.5091522 Z" id="Combined-Shape" fill="#000000"></path>
    </g>
</svg>